<mxfile host="65bd71144e">
    <diagram id="P4kpWVWkfTZM61vFFVWN" name="第 1 页">
        <mxGraphModel dx="3080" dy="1592" grid="1" gridSize="10" guides="1" tooltips="1" connect="1" arrows="1" fold="1" page="0" pageScale="1" pageWidth="827" pageHeight="1169" math="0" shadow="0">
            <root>
                <mxCell id="0"/>
                <mxCell id="1" parent="0"/>
                <mxCell id="4" style="edgeStyle=none;html=1;exitX=0.5;exitY=1;exitDx=0;exitDy=0;entryX=0.5;entryY=0;entryDx=0;entryDy=0;fontFamily=Architects Daughter;fontSize=24;startSize=12;endSize=12;sketch=1;curveFitting=1;jiggle=2;fontSource=https%3A%2F%2Ffonts.googleapis.com%2Fcss%3Ffamily%3DArchitects%2BDaughter;" parent="1" source="2" target="3" edge="1">
                    <mxGeometry relative="1" as="geometry"/>
                </mxCell>
                <mxCell id="5" value="Load" style="edgeLabel;html=1;align=center;verticalAlign=middle;resizable=0;points=[];fontSize=24;fontFamily=Architects Daughter;sketch=1;curveFitting=1;jiggle=2;fontSource=https%3A%2F%2Ffonts.googleapis.com%2Fcss%3Ffamily%3DArchitects%2BDaughter;" parent="4" vertex="1" connectable="0">
                    <mxGeometry x="-0.2211" y="-1" relative="1" as="geometry">
                        <mxPoint x="1" y="13" as="offset"/>
                    </mxGeometry>
                </mxCell>
                <mxCell id="2" value="Vulkan loader" style="rounded=0;whiteSpace=wrap;html=1;fontSize=24;fontFamily=Architects Daughter;sketch=1;curveFitting=1;jiggle=2;fontSource=https%3A%2F%2Ffonts.googleapis.com%2Fcss%3Ffamily%3DArchitects%2BDaughter;" parent="1" vertex="1">
                    <mxGeometry x="240" y="60" width="200" height="60" as="geometry"/>
                </mxCell>
                <mxCell id="13" style="edgeStyle=none;html=1;exitX=1;exitY=0.5;exitDx=0;exitDy=0;entryX=0;entryY=0.5;entryDx=0;entryDy=0;fontFamily=Architects Daughter;fontSize=24;startSize=12;endSize=12;sketch=1;curveFitting=1;jiggle=2;fontSource=https%3A%2F%2Ffonts.googleapis.com%2Fcss%3Ffamily%3DArchitects%2BDaughter;" parent="1" source="3" target="12" edge="1">
                    <mxGeometry relative="1" as="geometry"/>
                </mxCell>
                <mxCell id="15" value="Query" style="edgeLabel;html=1;align=center;verticalAlign=middle;resizable=0;points=[];fontSize=24;fontFamily=Architects Daughter;sketch=1;curveFitting=1;jiggle=2;fontSource=https%3A%2F%2Ffonts.googleapis.com%2Fcss%3Ffamily%3DArchitects%2BDaughter;" parent="13" vertex="1" connectable="0">
                    <mxGeometry x="0.0979" y="4" relative="1" as="geometry">
                        <mxPoint as="offset"/>
                    </mxGeometry>
                </mxCell>
                <mxCell id="3" value="Vulkan Instance" style="rounded=0;whiteSpace=wrap;html=1;fontSize=24;fontFamily=Architects Daughter;sketch=1;curveFitting=1;jiggle=2;fontSource=https%3A%2F%2Ffonts.googleapis.com%2Fcss%3Ffamily%3DArchitects%2BDaughter;" parent="1" vertex="1">
                    <mxGeometry x="240" y="240" width="200" height="60" as="geometry"/>
                </mxCell>
                <mxCell id="24" style="edgeStyle=none;html=1;entryX=0;entryY=0.5;entryDx=0;entryDy=0;fontFamily=Architects Daughter;fontSize=24;startSize=12;endSize=12;sketch=1;curveFitting=1;jiggle=2;fontSource=https%3A%2F%2Ffonts.googleapis.com%2Fcss%3Ffamily%3DArchitects%2BDaughter;" parent="1" source="12" target="23" edge="1">
                    <mxGeometry relative="1" as="geometry"/>
                </mxCell>
                <mxCell id="25" value="Create" style="edgeLabel;html=1;align=center;verticalAlign=middle;resizable=0;points=[];fontSize=24;fontFamily=Architects Daughter;sketch=1;curveFitting=1;jiggle=2;fontSource=https%3A%2F%2Ffonts.googleapis.com%2Fcss%3Ffamily%3DArchitects%2BDaughter;" parent="24" vertex="1" connectable="0">
                    <mxGeometry x="0.1264" y="2" relative="1" as="geometry">
                        <mxPoint x="-15" as="offset"/>
                    </mxGeometry>
                </mxCell>
                <mxCell id="12" value="Physical Device" style="rounded=0;whiteSpace=wrap;html=1;fontSize=24;fontFamily=Architects Daughter;sketch=1;curveFitting=1;jiggle=2;fontSource=https%3A%2F%2Ffonts.googleapis.com%2Fcss%3Ffamily%3DArchitects%2BDaughter;" parent="1" vertex="1">
                    <mxGeometry x="600" y="240" width="200" height="60" as="geometry"/>
                </mxCell>
                <mxCell id="17" value="Properties" style="rounded=0;whiteSpace=wrap;html=1;fontSize=24;fontFamily=Architects Daughter;sketch=1;curveFitting=1;jiggle=2;fontSource=https%3A%2F%2Ffonts.googleapis.com%2Fcss%3Ffamily%3DArchitects%2BDaughter;" parent="1" vertex="1">
                    <mxGeometry x="630" y="320" width="200" height="60" as="geometry"/>
                </mxCell>
                <mxCell id="18" value="Features" style="rounded=0;whiteSpace=wrap;html=1;fontSize=24;fontFamily=Architects Daughter;sketch=1;curveFitting=1;jiggle=2;fontSource=https%3A%2F%2Ffonts.googleapis.com%2Fcss%3Ffamily%3DArchitects%2BDaughter;" parent="1" vertex="1">
                    <mxGeometry x="630" y="400" width="200" height="60" as="geometry"/>
                </mxCell>
                <mxCell id="41" style="edgeStyle=none;hachureGap=4;html=1;fontFamily=Architects Daughter;fontSource=https%3A%2F%2Ffonts.googleapis.com%2Fcss%3Ffamily%3DArchitects%2BDaughter;fontSize=24;startArrow=none;startFill=0;entryX=0;entryY=0.5;entryDx=0;entryDy=0;startSize=12;endSize=12;sketch=1;curveFitting=1;jiggle=2;" parent="1" source="19" target="26" edge="1">
                    <mxGeometry relative="1" as="geometry">
                        <mxPoint x="1080" y="500" as="targetPoint"/>
                    </mxGeometry>
                </mxCell>
                <mxCell id="45" value="Create" style="edgeLabel;html=1;align=center;verticalAlign=middle;resizable=0;points=[];fontSize=24;fontFamily=Architects Daughter;fontColor=default;sketch=1;curveFitting=1;jiggle=2;fontSource=https%3A%2F%2Ffonts.googleapis.com%2Fcss%3Ffamily%3DArchitects%2BDaughter;" parent="41" vertex="1" connectable="0">
                    <mxGeometry x="0.0696" y="2" relative="1" as="geometry">
                        <mxPoint x="21" y="2" as="offset"/>
                    </mxGeometry>
                </mxCell>
                <mxCell id="19" value="Queue families" style="rounded=0;whiteSpace=wrap;html=1;fontSize=24;fontFamily=Architects Daughter;sketch=1;curveFitting=1;jiggle=2;fontSource=https%3A%2F%2Ffonts.googleapis.com%2Fcss%3Ffamily%3DArchitects%2BDaughter;" parent="1" vertex="1">
                    <mxGeometry x="630" y="480" width="200" height="60" as="geometry"/>
                </mxCell>
                <mxCell id="43" style="edgeStyle=none;shape=connector;rounded=1;hachureGap=4;html=1;exitX=0.5;exitY=1;exitDx=0;exitDy=0;labelBackgroundColor=default;strokeColor=default;fontFamily=Architects Daughter;fontSource=https%3A%2F%2Ffonts.googleapis.com%2Fcss%3Ffamily%3DArchitects%2BDaughter;fontSize=24;fontColor=default;startArrow=none;startFill=0;endArrow=classic;startSize=12;endSize=12;sketch=1;curveFitting=1;jiggle=2;" parent="1" source="23" edge="1">
                    <mxGeometry relative="1" as="geometry">
                        <mxPoint x="1060" y="500" as="targetPoint"/>
                    </mxGeometry>
                </mxCell>
                <mxCell id="76" style="edgeStyle=none;shape=connector;rounded=1;hachureGap=4;html=1;exitX=1;exitY=0.5;exitDx=0;exitDy=0;entryX=0.5;entryY=0;entryDx=0;entryDy=0;labelBackgroundColor=default;strokeColor=default;fontFamily=Architects Daughter;fontSource=https%3A%2F%2Ffonts.googleapis.com%2Fcss%3Ffamily%3DArchitects%2BDaughter;fontSize=24;fontColor=default;startArrow=none;startFill=0;endArrow=classic;endFill=1;startSize=12;endSize=12;sketch=1;curveFitting=1;jiggle=2;" parent="1" source="23" target="75" edge="1">
                    <mxGeometry relative="1" as="geometry">
                        <Array as="points">
                            <mxPoint x="1660" y="270"/>
                        </Array>
                    </mxGeometry>
                </mxCell>
                <mxCell id="77" value="Create swapchain&lt;br style=&quot;font-size: 24px;&quot;&gt;from logical device&lt;br style=&quot;font-size: 24px;&quot;&gt;and window surface" style="edgeLabel;html=1;align=center;verticalAlign=middle;resizable=0;points=[];fontSize=24;fontFamily=Architects Daughter;fontColor=default;sketch=1;curveFitting=1;jiggle=2;fontSource=https%3A%2F%2Ffonts.googleapis.com%2Fcss%3Ffamily%3DArchitects%2BDaughter;" parent="76" vertex="1" connectable="0">
                    <mxGeometry x="-0.3023" y="4" relative="1" as="geometry">
                        <mxPoint x="140" y="284" as="offset"/>
                    </mxGeometry>
                </mxCell>
                <mxCell id="23" value="Logical Device" style="rounded=0;whiteSpace=wrap;html=1;fontSize=24;fontFamily=Architects Daughter;sketch=1;curveFitting=1;jiggle=2;fontSource=https%3A%2F%2Ffonts.googleapis.com%2Fcss%3Ffamily%3DArchitects%2BDaughter;" parent="1" vertex="1">
                    <mxGeometry x="960" y="240" width="200" height="60" as="geometry"/>
                </mxCell>
                <mxCell id="26" value="Queue" style="rounded=0;whiteSpace=wrap;html=1;fontSize=24;fontFamily=Architects Daughter;sketch=1;curveFitting=1;jiggle=2;fontSource=https%3A%2F%2Ffonts.googleapis.com%2Fcss%3Ffamily%3DArchitects%2BDaughter;" parent="1" vertex="1">
                    <mxGeometry x="1240" y="480" width="200" height="60" as="geometry"/>
                </mxCell>
                <mxCell id="29" value="" style="shape=curlyBracket;whiteSpace=wrap;html=1;rounded=1;labelPosition=left;verticalLabelPosition=middle;align=right;verticalAlign=middle;fontFamily=Architects Daughter;fontSize=24;sketch=1;curveFitting=1;jiggle=2;fontSource=https%3A%2F%2Ffonts.googleapis.com%2Fcss%3Ffamily%3DArchitects%2BDaughter;" parent="1" vertex="1">
                    <mxGeometry x="1240" y="560" width="20" height="220" as="geometry"/>
                </mxCell>
                <mxCell id="30" value="Compute" style="rounded=0;whiteSpace=wrap;html=1;fontSize=24;fontFamily=Architects Daughter;sketch=1;curveFitting=1;jiggle=2;fontSource=https%3A%2F%2Ffonts.googleapis.com%2Fcss%3Ffamily%3DArchitects%2BDaughter;" parent="1" vertex="1">
                    <mxGeometry x="1270" y="560" width="200" height="60" as="geometry"/>
                </mxCell>
                <mxCell id="31" value="Draw" style="rounded=0;whiteSpace=wrap;html=1;fontSize=24;fontFamily=Architects Daughter;sketch=1;curveFitting=1;jiggle=2;fontSource=https%3A%2F%2Ffonts.googleapis.com%2Fcss%3Ffamily%3DArchitects%2BDaughter;" parent="1" vertex="1">
                    <mxGeometry x="1270" y="640" width="200" height="60" as="geometry"/>
                </mxCell>
                <mxCell id="94" style="edgeStyle=none;shape=connector;rounded=1;hachureGap=4;html=1;entryX=0;entryY=0.5;entryDx=0;entryDy=0;labelBackgroundColor=default;strokeColor=default;fontFamily=Architects Daughter;fontSource=https%3A%2F%2Ffonts.googleapis.com%2Fcss%3Ffamily%3DArchitects%2BDaughter;fontSize=24;fontColor=default;startArrow=none;startFill=0;endArrow=classic;endFill=1;startSize=12;endSize=12;sketch=1;curveFitting=1;jiggle=2;" parent="1" source="32" target="90" edge="1">
                    <mxGeometry relative="1" as="geometry">
                        <Array as="points">
                            <mxPoint x="1370" y="1150"/>
                        </Array>
                    </mxGeometry>
                </mxCell>
                <mxCell id="97" value="Reference presentation queue&lt;br style=&quot;font-size: 24px;&quot;&gt;on swapchain creation" style="edgeLabel;html=1;align=center;verticalAlign=middle;resizable=0;points=[];fontSize=24;fontFamily=Architects Daughter;fontColor=default;sketch=1;curveFitting=1;jiggle=2;fontSource=https%3A%2F%2Ffonts.googleapis.com%2Fcss%3Ffamily%3DArchitects%2BDaughter;" parent="94" vertex="1" connectable="0">
                    <mxGeometry x="0.4986" y="3" relative="1" as="geometry">
                        <mxPoint x="-72" y="43" as="offset"/>
                    </mxGeometry>
                </mxCell>
                <mxCell id="32" value="Presentation" style="rounded=0;whiteSpace=wrap;html=1;fontSize=24;fontFamily=Architects Daughter;sketch=1;curveFitting=1;jiggle=2;fontSource=https%3A%2F%2Ffonts.googleapis.com%2Fcss%3Ffamily%3DArchitects%2BDaughter;" parent="1" vertex="1">
                    <mxGeometry x="1270" y="720" width="200" height="60" as="geometry"/>
                </mxCell>
                <mxCell id="33" value="" style="shape=curlyBracket;whiteSpace=wrap;html=1;rounded=1;labelPosition=left;verticalLabelPosition=middle;align=right;verticalAlign=middle;fontFamily=Architects Daughter;fontSize=24;sketch=1;curveFitting=1;jiggle=2;fontSource=https%3A%2F%2Ffonts.googleapis.com%2Fcss%3Ffamily%3DArchitects%2BDaughter;" parent="1" vertex="1">
                    <mxGeometry x="600" y="320" width="20" height="780" as="geometry"/>
                </mxCell>
                <mxCell id="34" value="" style="shape=curlyBracket;whiteSpace=wrap;html=1;rounded=1;labelPosition=left;verticalLabelPosition=middle;align=right;verticalAlign=middle;fontFamily=Architects Daughter;fontSize=24;sketch=1;curveFitting=1;jiggle=2;fontSource=https%3A%2F%2Ffonts.googleapis.com%2Fcss%3Ffamily%3DArchitects%2BDaughter;" parent="1" vertex="1">
                    <mxGeometry x="630" y="560" width="20" height="220" as="geometry"/>
                </mxCell>
                <mxCell id="38" style="edgeStyle=none;hachureGap=4;html=1;exitX=1;exitY=0.5;exitDx=0;exitDy=0;entryX=0;entryY=0.5;entryDx=0;entryDy=0;dashed=1;fontFamily=Architects Daughter;fontSource=https%3A%2F%2Ffonts.googleapis.com%2Fcss%3Ffamily%3DArchitects%2BDaughter;fontSize=24;startArrow=classic;startFill=1;dashPattern=8 8;startSize=12;endSize=12;sketch=1;curveFitting=1;jiggle=2;" parent="1" source="35" target="30" edge="1">
                    <mxGeometry relative="1" as="geometry"/>
                </mxCell>
                <mxCell id="35" value="Compute family" style="rounded=0;whiteSpace=wrap;html=1;fontSize=24;fontFamily=Architects Daughter;sketch=1;curveFitting=1;jiggle=2;fontSource=https%3A%2F%2Ffonts.googleapis.com%2Fcss%3Ffamily%3DArchitects%2BDaughter;" parent="1" vertex="1">
                    <mxGeometry x="660" y="560" width="200" height="60" as="geometry"/>
                </mxCell>
                <mxCell id="39" style="edgeStyle=none;hachureGap=4;html=1;entryX=0;entryY=0.5;entryDx=0;entryDy=0;dashed=1;fontFamily=Architects Daughter;fontSource=https%3A%2F%2Ffonts.googleapis.com%2Fcss%3Ffamily%3DArchitects%2BDaughter;fontSize=24;startArrow=classic;startFill=1;dashPattern=8 8;startSize=12;endSize=12;sketch=1;curveFitting=1;jiggle=2;" parent="1" source="36" target="31" edge="1">
                    <mxGeometry relative="1" as="geometry"/>
                </mxCell>
                <mxCell id="139" value="Corresponds to" style="edgeLabel;html=1;align=center;verticalAlign=middle;resizable=0;points=[];fontSize=24;fontFamily=Architects Daughter;fontColor=default;sketch=1;curveFitting=1;jiggle=2;fontSource=https%3A%2F%2Ffonts.googleapis.com%2Fcss%3Ffamily%3DArchitects%2BDaughter;" parent="39" vertex="1" connectable="0">
                    <mxGeometry x="-0.1502" y="2" relative="1" as="geometry">
                        <mxPoint x="26" y="2" as="offset"/>
                    </mxGeometry>
                </mxCell>
                <mxCell id="36" value="Draw family" style="rounded=0;whiteSpace=wrap;html=1;fontSize=24;fontFamily=Architects Daughter;sketch=1;curveFitting=1;jiggle=2;fontSource=https%3A%2F%2Ffonts.googleapis.com%2Fcss%3Ffamily%3DArchitects%2BDaughter;" parent="1" vertex="1">
                    <mxGeometry x="660" y="640" width="200" height="60" as="geometry"/>
                </mxCell>
                <mxCell id="40" style="edgeStyle=none;hachureGap=4;html=1;exitX=1;exitY=0.5;exitDx=0;exitDy=0;entryX=0;entryY=0.5;entryDx=0;entryDy=0;dashed=1;fontFamily=Architects Daughter;fontSource=https%3A%2F%2Ffonts.googleapis.com%2Fcss%3Ffamily%3DArchitects%2BDaughter;fontSize=24;startArrow=classic;startFill=1;dashPattern=8 8;startSize=12;endSize=12;sketch=1;curveFitting=1;jiggle=2;" parent="1" source="37" target="32" edge="1">
                    <mxGeometry relative="1" as="geometry"/>
                </mxCell>
                <mxCell id="37" value="Presentation" style="rounded=0;whiteSpace=wrap;html=1;fontSize=24;fontFamily=Architects Daughter;sketch=1;curveFitting=1;jiggle=2;fontSource=https%3A%2F%2Ffonts.googleapis.com%2Fcss%3Ffamily%3DArchitects%2BDaughter;" parent="1" vertex="1">
                    <mxGeometry x="660" y="720" width="200" height="60" as="geometry"/>
                </mxCell>
                <mxCell id="69" value="Swapchain supp." style="rounded=0;whiteSpace=wrap;html=1;fontSize=24;fontFamily=Architects Daughter;sketch=1;curveFitting=1;jiggle=2;fontSource=https%3A%2F%2Ffonts.googleapis.com%2Fcss%3Ffamily%3DArchitects%2BDaughter;" parent="1" vertex="1">
                    <mxGeometry x="630" y="800" width="200" height="60" as="geometry"/>
                </mxCell>
                <mxCell id="71" value="" style="shape=curlyBracket;whiteSpace=wrap;html=1;rounded=1;labelPosition=left;verticalLabelPosition=middle;align=right;verticalAlign=middle;fontFamily=Architects Daughter;fontSize=24;sketch=1;curveFitting=1;jiggle=2;fontSource=https%3A%2F%2Ffonts.googleapis.com%2Fcss%3Ffamily%3DArchitects%2BDaughter;" parent="1" vertex="1">
                    <mxGeometry x="630" y="880" width="20" height="220" as="geometry"/>
                </mxCell>
                <mxCell id="72" value="Surface capabilities" style="rounded=0;whiteSpace=wrap;html=1;fontSize=24;fontFamily=Architects Daughter;sketch=1;curveFitting=1;jiggle=2;fontSource=https%3A%2F%2Ffonts.googleapis.com%2Fcss%3Ffamily%3DArchitects%2BDaughter;" parent="1" vertex="1">
                    <mxGeometry x="660" y="1040" width="200" height="60" as="geometry"/>
                </mxCell>
                <mxCell id="82" style="edgeStyle=none;shape=connector;rounded=1;hachureGap=4;html=1;exitX=1;exitY=0.5;exitDx=0;exitDy=0;entryX=0;entryY=0.5;entryDx=0;entryDy=0;labelBackgroundColor=default;strokeColor=default;fontFamily=Architects Daughter;fontSource=https%3A%2F%2Ffonts.googleapis.com%2Fcss%3Ffamily%3DArchitects%2BDaughter;fontSize=24;fontColor=default;startArrow=classic;startFill=1;endArrow=classic;endFill=1;startSize=12;endSize=12;dashed=1;dashPattern=8 8;sketch=1;curveFitting=1;jiggle=2;" parent="1" source="73" target="79" edge="1">
                    <mxGeometry relative="1" as="geometry"/>
                </mxCell>
                <mxCell id="95" value="Picked from supported formats" style="edgeLabel;html=1;align=center;verticalAlign=middle;resizable=0;points=[];fontSize=24;fontFamily=Architects Daughter;fontColor=default;sketch=1;curveFitting=1;jiggle=2;fontSource=https%3A%2F%2Ffonts.googleapis.com%2Fcss%3Ffamily%3DArchitects%2BDaughter;" parent="82" vertex="1" connectable="0">
                    <mxGeometry x="-0.1024" y="3" relative="1" as="geometry">
                        <mxPoint x="52" y="23" as="offset"/>
                    </mxGeometry>
                </mxCell>
                <mxCell id="73" value="Supported Formats" style="rounded=0;whiteSpace=wrap;html=1;fontSize=24;fontFamily=Architects Daughter;sketch=1;curveFitting=1;jiggle=2;fontSource=https%3A%2F%2Ffonts.googleapis.com%2Fcss%3Ffamily%3DArchitects%2BDaughter;" parent="1" vertex="1">
                    <mxGeometry x="660" y="880" width="200" height="60" as="geometry"/>
                </mxCell>
                <mxCell id="83" style="edgeStyle=none;shape=connector;rounded=1;hachureGap=4;html=1;exitX=1;exitY=0.5;exitDx=0;exitDy=0;entryX=0;entryY=0.5;entryDx=0;entryDy=0;labelBackgroundColor=default;strokeColor=default;fontFamily=Architects Daughter;fontSource=https%3A%2F%2Ffonts.googleapis.com%2Fcss%3Ffamily%3DArchitects%2BDaughter;fontSize=24;fontColor=default;startArrow=classic;startFill=1;endArrow=classic;endFill=1;startSize=12;endSize=12;dashed=1;dashPattern=8 8;sketch=1;curveFitting=1;jiggle=2;" parent="1" source="74" target="80" edge="1">
                    <mxGeometry relative="1" as="geometry"/>
                </mxCell>
                <mxCell id="96" value="Picked from supported presetation modes" style="edgeLabel;html=1;align=center;verticalAlign=middle;resizable=0;points=[];fontSize=24;fontFamily=Architects Daughter;fontColor=default;sketch=1;curveFitting=1;jiggle=2;fontSource=https%3A%2F%2Ffonts.googleapis.com%2Fcss%3Ffamily%3DArchitects%2BDaughter;" parent="83" vertex="1" connectable="0">
                    <mxGeometry x="0.121" y="6" relative="1" as="geometry">
                        <mxPoint x="-29" y="26" as="offset"/>
                    </mxGeometry>
                </mxCell>
                <mxCell id="74" value="Supported Present modes" style="rounded=0;whiteSpace=wrap;html=1;fontSize=24;fontFamily=Architects Daughter;sketch=1;curveFitting=1;jiggle=2;fontSource=https%3A%2F%2Ffonts.googleapis.com%2Fcss%3Ffamily%3DArchitects%2BDaughter;" parent="1" vertex="1">
                    <mxGeometry x="660" y="960" width="200" height="60" as="geometry"/>
                </mxCell>
                <mxCell id="88" style="edgeStyle=none;shape=connector;rounded=1;hachureGap=4;html=1;exitX=1;exitY=0.5;exitDx=0;exitDy=0;entryX=0;entryY=0.5;entryDx=0;entryDy=0;labelBackgroundColor=default;strokeColor=default;fontFamily=Architects Daughter;fontSource=https%3A%2F%2Ffonts.googleapis.com%2Fcss%3Ffamily%3DArchitects%2BDaughter;fontSize=24;fontColor=default;startArrow=none;startFill=0;endArrow=classic;endFill=1;startSize=12;endSize=12;sketch=1;curveFitting=1;jiggle=2;" parent="1" source="75" target="87" edge="1">
                    <mxGeometry relative="1" as="geometry"/>
                </mxCell>
                <mxCell id="75" value="Swapchain" style="rounded=0;whiteSpace=wrap;html=1;fontSize=24;fontFamily=Architects Daughter;sketch=1;curveFitting=1;jiggle=2;fontSource=https%3A%2F%2Ffonts.googleapis.com%2Fcss%3Ffamily%3DArchitects%2BDaughter;" parent="1" vertex="1">
                    <mxGeometry x="1560" y="800" width="200" height="60" as="geometry"/>
                </mxCell>
                <mxCell id="78" value="" style="shape=curlyBracket;whiteSpace=wrap;html=1;rounded=1;labelPosition=left;verticalLabelPosition=middle;align=right;verticalAlign=middle;fontFamily=Architects Daughter;fontSize=24;sketch=1;curveFitting=1;jiggle=2;fontSource=https%3A%2F%2Ffonts.googleapis.com%2Fcss%3Ffamily%3DArchitects%2BDaughter;" parent="1" vertex="1">
                    <mxGeometry x="1560" y="880" width="20" height="460" as="geometry"/>
                </mxCell>
                <mxCell id="79" value="Format" style="rounded=0;whiteSpace=wrap;html=1;fontSize=24;fontFamily=Architects Daughter;sketch=1;curveFitting=1;jiggle=2;fontSource=https%3A%2F%2Ffonts.googleapis.com%2Fcss%3Ffamily%3DArchitects%2BDaughter;" parent="1" vertex="1">
                    <mxGeometry x="1590" y="880" width="200" height="60" as="geometry"/>
                </mxCell>
                <mxCell id="80" value="Present mode" style="rounded=0;whiteSpace=wrap;html=1;fontSize=24;fontFamily=Architects Daughter;sketch=1;curveFitting=1;jiggle=2;fontSource=https%3A%2F%2Ffonts.googleapis.com%2Fcss%3Ffamily%3DArchitects%2BDaughter;" parent="1" vertex="1">
                    <mxGeometry x="1590" y="960" width="200" height="60" as="geometry"/>
                </mxCell>
                <mxCell id="81" value="Swap extent" style="rounded=0;whiteSpace=wrap;html=1;fontSize=24;fontFamily=Architects Daughter;sketch=1;curveFitting=1;jiggle=2;fontSource=https%3A%2F%2Ffonts.googleapis.com%2Fcss%3Ffamily%3DArchitects%2BDaughter;" parent="1" vertex="1">
                    <mxGeometry x="1590" y="1200" width="200" height="60" as="geometry"/>
                </mxCell>
                <mxCell id="86" style="edgeStyle=none;shape=connector;rounded=1;hachureGap=4;html=1;exitX=0;exitY=0.5;exitDx=0;exitDy=0;entryX=0.5;entryY=0;entryDx=0;entryDy=0;labelBackgroundColor=default;strokeColor=default;fontFamily=Architects Daughter;fontSource=https%3A%2F%2Ffonts.googleapis.com%2Fcss%3Ffamily%3DArchitects%2BDaughter;fontSize=24;fontColor=default;startArrow=none;startFill=0;endArrow=classic;endFill=1;startSize=12;endSize=12;sketch=1;curveFitting=1;jiggle=2;" parent="1" source="85" target="75" edge="1">
                    <mxGeometry relative="1" as="geometry">
                        <Array as="points">
                            <mxPoint x="1660" y="270"/>
                        </Array>
                    </mxGeometry>
                </mxCell>
                <mxCell id="92" style="edgeStyle=none;shape=connector;rounded=1;hachureGap=4;html=1;entryX=1;entryY=0.5;entryDx=0;entryDy=0;labelBackgroundColor=default;strokeColor=default;fontFamily=Architects Daughter;fontSource=https%3A%2F%2Ffonts.googleapis.com%2Fcss%3Ffamily%3DArchitects%2BDaughter;fontSize=24;fontColor=default;startArrow=none;startFill=0;endArrow=classic;endFill=1;startSize=12;endSize=12;sketch=1;curveFitting=1;jiggle=2;" parent="1" source="85" target="91" edge="1">
                    <mxGeometry relative="1" as="geometry">
                        <Array as="points">
                            <mxPoint x="2250" y="1310"/>
                        </Array>
                    </mxGeometry>
                </mxCell>
                <mxCell id="93" style="edgeStyle=none;shape=connector;rounded=1;hachureGap=4;html=1;entryX=1;entryY=0.5;entryDx=0;entryDy=0;labelBackgroundColor=default;strokeColor=default;fontFamily=Architects Daughter;fontSource=https%3A%2F%2Ffonts.googleapis.com%2Fcss%3Ffamily%3DArchitects%2BDaughter;fontSize=24;fontColor=default;startArrow=none;startFill=0;endArrow=classic;endFill=1;startSize=12;endSize=12;sketch=1;curveFitting=1;jiggle=2;" parent="1" source="85" target="81" edge="1">
                    <mxGeometry relative="1" as="geometry">
                        <Array as="points">
                            <mxPoint x="2250" y="1230"/>
                        </Array>
                    </mxGeometry>
                </mxCell>
                <mxCell id="85" value="Window surface" style="rounded=0;whiteSpace=wrap;html=1;fontSize=24;fontFamily=Architects Daughter;sketch=1;curveFitting=1;jiggle=2;fontSource=https%3A%2F%2Ffonts.googleapis.com%2Fcss%3Ffamily%3DArchitects%2BDaughter;" parent="1" vertex="1">
                    <mxGeometry x="2150" y="240" width="200" height="60" as="geometry"/>
                </mxCell>
                <mxCell id="99" style="edgeStyle=none;shape=connector;rounded=1;hachureGap=4;html=1;entryX=0;entryY=0.5;entryDx=0;entryDy=0;labelBackgroundColor=default;strokeColor=default;fontFamily=Architects Daughter;fontSource=https%3A%2F%2Ffonts.googleapis.com%2Fcss%3Ffamily%3DArchitects%2BDaughter;fontSize=24;fontColor=default;startArrow=none;startFill=0;endArrow=classic;endFill=1;startSize=12;endSize=12;exitX=1;exitY=0.5;exitDx=0;exitDy=0;sketch=1;curveFitting=1;jiggle=2;" parent="1" source="87" target="98" edge="1">
                    <mxGeometry relative="1" as="geometry"/>
                </mxCell>
                <mxCell id="87" value="Swapchain images" style="rounded=0;whiteSpace=wrap;html=1;fontSize=24;fontFamily=Architects Daughter;sketch=1;curveFitting=1;jiggle=2;fontSource=https%3A%2F%2Ffonts.googleapis.com%2Fcss%3Ffamily%3DArchitects%2BDaughter;" parent="1" vertex="1">
                    <mxGeometry x="1920" y="800" width="200" height="60" as="geometry"/>
                </mxCell>
                <mxCell id="89" value="Image sharing mode" style="rounded=0;whiteSpace=wrap;html=1;fontSize=24;fontFamily=Architects Daughter;sketch=1;curveFitting=1;jiggle=2;fontSource=https%3A%2F%2Ffonts.googleapis.com%2Fcss%3Ffamily%3DArchitects%2BDaughter;" parent="1" vertex="1">
                    <mxGeometry x="1590" y="1040" width="200" height="60" as="geometry"/>
                </mxCell>
                <mxCell id="90" value="Presentation queue" style="rounded=0;whiteSpace=wrap;html=1;fontSize=24;fontFamily=Architects Daughter;sketch=1;curveFitting=1;jiggle=2;fontSource=https%3A%2F%2Ffonts.googleapis.com%2Fcss%3Ffamily%3DArchitects%2BDaughter;" parent="1" vertex="1">
                    <mxGeometry x="1590" y="1120" width="200" height="60" as="geometry"/>
                </mxCell>
                <mxCell id="91" value="Window surface" style="rounded=0;whiteSpace=wrap;html=1;fontSize=24;fontFamily=Architects Daughter;sketch=1;curveFitting=1;jiggle=2;fontSource=https%3A%2F%2Ffonts.googleapis.com%2Fcss%3Ffamily%3DArchitects%2BDaughter;" parent="1" vertex="1">
                    <mxGeometry x="1590" y="1280" width="200" height="60" as="geometry"/>
                </mxCell>
                <mxCell id="158" style="edgeStyle=none;shape=connector;rounded=1;hachureGap=4;html=1;labelBackgroundColor=default;strokeColor=default;fontFamily=Architects Daughter;fontSource=https%3A%2F%2Ffonts.googleapis.com%2Fcss%3Ffamily%3DArchitects%2BDaughter;fontSize=24;fontColor=default;startArrow=none;startFill=0;endArrow=classic;endFill=1;startSize=12;endSize=12;entryX=0.5;entryY=0;entryDx=0;entryDy=0;sketch=1;curveFitting=1;jiggle=2;" parent="1" source="98" target="161" edge="1">
                    <mxGeometry relative="1" as="geometry">
                        <mxPoint x="2470.000000000001" y="2760" as="targetPoint"/>
                    </mxGeometry>
                </mxCell>
                <mxCell id="163" value="Create framebuffer&lt;br style=&quot;font-size: 24px;&quot;&gt;on image views" style="edgeLabel;html=1;align=center;verticalAlign=middle;resizable=0;points=[];fontSize=24;fontFamily=Architects Daughter;fontColor=default;sketch=1;curveFitting=1;jiggle=2;fontSource=https%3A%2F%2Ffonts.googleapis.com%2Fcss%3Ffamily%3DArchitects%2BDaughter;" parent="158" vertex="1" connectable="0">
                    <mxGeometry x="0.092" y="3" relative="1" as="geometry">
                        <mxPoint x="7" y="-87" as="offset"/>
                    </mxGeometry>
                </mxCell>
                <mxCell id="98" value="Image views" style="rounded=0;whiteSpace=wrap;html=1;fontSize=24;fontFamily=Architects Daughter;sketch=1;curveFitting=1;jiggle=2;fontSource=https%3A%2F%2Ffonts.googleapis.com%2Fcss%3Ffamily%3DArchitects%2BDaughter;" parent="1" vertex="1">
                    <mxGeometry x="2370" y="800" width="200" height="60" as="geometry"/>
                </mxCell>
                <mxCell id="108" style="edgeStyle=none;shape=connector;rounded=1;hachureGap=4;html=1;exitX=1;exitY=0.5;exitDx=0;exitDy=0;entryX=0;entryY=0.5;entryDx=0;entryDy=0;labelBackgroundColor=default;strokeColor=default;fontFamily=Architects Daughter;fontSource=https%3A%2F%2Ffonts.googleapis.com%2Fcss%3Ffamily%3DArchitects%2BDaughter;fontSize=24;fontColor=default;startArrow=none;startFill=0;endArrow=classic;endFill=1;startSize=12;endSize=12;sketch=1;curveFitting=1;jiggle=2;" parent="1" source="106" target="107" edge="1">
                    <mxGeometry relative="1" as="geometry"/>
                </mxCell>
                <mxCell id="109" value="Create" style="edgeLabel;html=1;align=center;verticalAlign=middle;resizable=0;points=[];fontSize=24;fontFamily=Architects Daughter;fontColor=default;sketch=1;curveFitting=1;jiggle=2;fontSource=https%3A%2F%2Ffonts.googleapis.com%2Fcss%3Ffamily%3DArchitects%2BDaughter;" parent="108" vertex="1" connectable="0">
                    <mxGeometry x="0.3687" y="-4" relative="1" as="geometry">
                        <mxPoint x="-30" y="-4" as="offset"/>
                    </mxGeometry>
                </mxCell>
                <mxCell id="106" value="Shader" style="rounded=0;whiteSpace=wrap;html=1;fontSize=24;fontFamily=Architects Daughter;sketch=1;curveFitting=1;jiggle=2;fontSource=https%3A%2F%2Ffonts.googleapis.com%2Fcss%3Ffamily%3DArchitects%2BDaughter;" parent="1" vertex="1">
                    <mxGeometry x="240" y="1420" width="200" height="60" as="geometry"/>
                </mxCell>
                <mxCell id="111" style="edgeStyle=none;shape=connector;rounded=1;hachureGap=4;html=1;exitX=1;exitY=0.5;exitDx=0;exitDy=0;entryX=0;entryY=0.5;entryDx=0;entryDy=0;labelBackgroundColor=default;strokeColor=default;fontFamily=Architects Daughter;fontSource=https%3A%2F%2Ffonts.googleapis.com%2Fcss%3Ffamily%3DArchitects%2BDaughter;fontSize=24;fontColor=default;startArrow=none;startFill=0;endArrow=classic;endFill=1;startSize=12;endSize=12;sketch=1;curveFitting=1;jiggle=2;" parent="1" source="107" target="110" edge="1">
                    <mxGeometry relative="1" as="geometry"/>
                </mxCell>
                <mxCell id="112" value="Create" style="edgeLabel;html=1;align=center;verticalAlign=middle;resizable=0;points=[];fontSize=24;fontFamily=Architects Daughter;fontColor=default;sketch=1;curveFitting=1;jiggle=2;fontSource=https%3A%2F%2Ffonts.googleapis.com%2Fcss%3Ffamily%3DArchitects%2BDaughter;" parent="111" vertex="1" connectable="0">
                    <mxGeometry x="0.3322" y="6" relative="1" as="geometry">
                        <mxPoint x="-26" y="6" as="offset"/>
                    </mxGeometry>
                </mxCell>
                <mxCell id="107" value="Shader module" style="rounded=0;whiteSpace=wrap;html=1;fontSize=24;fontFamily=Architects Daughter;sketch=1;curveFitting=1;jiggle=2;fontSource=https%3A%2F%2Ffonts.googleapis.com%2Fcss%3Ffamily%3DArchitects%2BDaughter;" parent="1" vertex="1">
                    <mxGeometry x="600" y="1420" width="200" height="60" as="geometry"/>
                </mxCell>
                <mxCell id="156" style="edgeStyle=none;shape=connector;rounded=1;hachureGap=4;html=1;entryX=0;entryY=0.5;entryDx=0;entryDy=0;labelBackgroundColor=default;strokeColor=default;fontFamily=Architects Daughter;fontSource=https%3A%2F%2Ffonts.googleapis.com%2Fcss%3Ffamily%3DArchitects%2BDaughter;fontSize=24;fontColor=default;startArrow=none;startFill=0;endArrow=classic;endFill=1;startSize=12;endSize=12;sketch=1;curveFitting=1;jiggle=2;" parent="1" source="110" target="152" edge="1">
                    <mxGeometry relative="1" as="geometry">
                        <Array as="points">
                            <mxPoint x="1560" y="1450"/>
                            <mxPoint x="1560" y="2010"/>
                        </Array>
                    </mxGeometry>
                </mxCell>
                <mxCell id="110" value="Shader stage" style="rounded=0;whiteSpace=wrap;html=1;fontSize=24;fontFamily=Architects Daughter;sketch=1;curveFitting=1;jiggle=2;fontSource=https%3A%2F%2Ffonts.googleapis.com%2Fcss%3Ffamily%3DArchitects%2BDaughter;" parent="1" vertex="1">
                    <mxGeometry x="960" y="1420" width="200" height="60" as="geometry"/>
                </mxCell>
                <mxCell id="157" style="edgeStyle=none;shape=connector;rounded=1;hachureGap=4;html=1;exitX=1;exitY=0.5;exitDx=0;exitDy=0;labelBackgroundColor=default;strokeColor=default;fontFamily=Architects Daughter;fontSource=https%3A%2F%2Ffonts.googleapis.com%2Fcss%3Ffamily%3DArchitects%2BDaughter;fontSize=24;fontColor=default;startArrow=none;startFill=0;endArrow=classic;endFill=1;startSize=12;endSize=12;sketch=1;curveFitting=1;jiggle=2;" parent="1" source="113" edge="1">
                    <mxGeometry relative="1" as="geometry">
                        <mxPoint x="1559.9999999999995" y="1530.3846153846152" as="targetPoint"/>
                    </mxGeometry>
                </mxCell>
                <mxCell id="113" value="Fixed functions" style="rounded=0;whiteSpace=wrap;html=1;fontSize=24;fontFamily=Architects Daughter;sketch=1;curveFitting=1;jiggle=2;fontSource=https%3A%2F%2Ffonts.googleapis.com%2Fcss%3Ffamily%3DArchitects%2BDaughter;" parent="1" vertex="1">
                    <mxGeometry x="960" y="1500" width="200" height="60" as="geometry"/>
                </mxCell>
                <mxCell id="114" value="Vertex input" style="rounded=0;whiteSpace=wrap;html=1;fontSize=24;fontFamily=Architects Daughter;sketch=1;curveFitting=1;jiggle=2;fontSource=https%3A%2F%2Ffonts.googleapis.com%2Fcss%3Ffamily%3DArchitects%2BDaughter;" parent="1" vertex="1">
                    <mxGeometry x="990" y="1580" width="200" height="60" as="geometry"/>
                </mxCell>
                <mxCell id="115" value="" style="shape=curlyBracket;whiteSpace=wrap;html=1;rounded=1;labelPosition=left;verticalLabelPosition=middle;align=right;verticalAlign=middle;fontFamily=Architects Daughter;fontSize=24;sketch=1;curveFitting=1;jiggle=2;fontSource=https%3A%2F%2Ffonts.googleapis.com%2Fcss%3Ffamily%3DArchitects%2BDaughter;" parent="1" vertex="1">
                    <mxGeometry x="960" y="1580" width="20" height="700" as="geometry"/>
                </mxCell>
                <mxCell id="117" value="" style="shape=curlyBracket;whiteSpace=wrap;html=1;rounded=1;labelPosition=left;verticalLabelPosition=middle;align=right;verticalAlign=middle;fontFamily=Architects Daughter;fontSize=24;sketch=1;curveFitting=1;jiggle=2;fontSource=https%3A%2F%2Ffonts.googleapis.com%2Fcss%3Ffamily%3DArchitects%2BDaughter;" parent="1" vertex="1">
                    <mxGeometry x="990" y="1660" width="20" height="140" as="geometry"/>
                </mxCell>
                <mxCell id="118" value="Binding" style="rounded=0;whiteSpace=wrap;html=1;fontSize=24;fontFamily=Architects Daughter;sketch=1;curveFitting=1;jiggle=2;fontSource=https%3A%2F%2Ffonts.googleapis.com%2Fcss%3Ffamily%3DArchitects%2BDaughter;" parent="1" vertex="1">
                    <mxGeometry x="1020" y="1660" width="200" height="60" as="geometry"/>
                </mxCell>
                <mxCell id="119" value="Attribute descriptions" style="rounded=0;whiteSpace=wrap;html=1;fontSize=24;fontFamily=Architects Daughter;sketch=1;curveFitting=1;jiggle=2;fontSource=https%3A%2F%2Ffonts.googleapis.com%2Fcss%3Ffamily%3DArchitects%2BDaughter;" parent="1" vertex="1">
                    <mxGeometry x="1020" y="1740" width="200" height="60" as="geometry"/>
                </mxCell>
                <mxCell id="120" value="Input&lt;br style=&quot;font-size: 24px;&quot;&gt;Assembly" style="rounded=0;whiteSpace=wrap;html=1;fontSize=24;fontFamily=Architects Daughter;sketch=1;curveFitting=1;jiggle=2;fontSource=https%3A%2F%2Ffonts.googleapis.com%2Fcss%3Ffamily%3DArchitects%2BDaughter;" parent="1" vertex="1">
                    <mxGeometry x="990" y="1820" width="200" height="60" as="geometry"/>
                </mxCell>
                <mxCell id="121" value="Viewport + Clip" style="rounded=0;whiteSpace=wrap;html=1;fontSize=24;fontFamily=Architects Daughter;sketch=1;curveFitting=1;jiggle=2;fontSource=https%3A%2F%2Ffonts.googleapis.com%2Fcss%3Ffamily%3DArchitects%2BDaughter;" parent="1" vertex="1">
                    <mxGeometry x="990" y="1900" width="200" height="60" as="geometry"/>
                </mxCell>
                <mxCell id="122" value="Rasterization" style="rounded=0;whiteSpace=wrap;html=1;fontSize=24;fontFamily=Architects Daughter;sketch=1;curveFitting=1;jiggle=2;fontSource=https%3A%2F%2Ffonts.googleapis.com%2Fcss%3Ffamily%3DArchitects%2BDaughter;" parent="1" vertex="1">
                    <mxGeometry x="990" y="1980" width="200" height="60" as="geometry"/>
                </mxCell>
                <mxCell id="124" style="edgeStyle=none;shape=connector;rounded=1;hachureGap=4;html=1;entryX=0.1;entryY=0.5;entryDx=0;entryDy=0;labelBackgroundColor=default;strokeColor=default;fontFamily=Architects Daughter;fontSource=https%3A%2F%2Ffonts.googleapis.com%2Fcss%3Ffamily%3DArchitects%2BDaughter;fontSize=24;fontColor=default;startArrow=none;startFill=0;endArrow=classic;endFill=1;startSize=12;endSize=12;entryPerimeter=0;sketch=1;curveFitting=1;jiggle=2;" parent="1" source="123" target="115" edge="1">
                    <mxGeometry relative="1" as="geometry"/>
                </mxCell>
                <mxCell id="125" value="Override" style="edgeLabel;html=1;align=center;verticalAlign=middle;resizable=0;points=[];fontSize=24;fontFamily=Architects Daughter;fontColor=default;sketch=1;curveFitting=1;jiggle=2;fontSource=https%3A%2F%2Ffonts.googleapis.com%2Fcss%3Ffamily%3DArchitects%2BDaughter;" parent="124" vertex="1" connectable="0">
                    <mxGeometry x="0.13" relative="1" as="geometry">
                        <mxPoint x="-10" as="offset"/>
                    </mxGeometry>
                </mxCell>
                <mxCell id="123" value="Dynamic states" style="rounded=0;whiteSpace=wrap;html=1;fontSize=24;fontFamily=Architects Daughter;sketch=1;curveFitting=1;jiggle=2;fontSource=https%3A%2F%2Ffonts.googleapis.com%2Fcss%3Ffamily%3DArchitects%2BDaughter;" parent="1" vertex="1">
                    <mxGeometry x="600" y="1900" width="200" height="60" as="geometry"/>
                </mxCell>
                <mxCell id="126" value="Multisampling" style="rounded=0;whiteSpace=wrap;html=1;fontSize=24;fontFamily=Architects Daughter;sketch=1;curveFitting=1;jiggle=2;fontSource=https%3A%2F%2Ffonts.googleapis.com%2Fcss%3Ffamily%3DArchitects%2BDaughter;" parent="1" vertex="1">
                    <mxGeometry x="990" y="2060" width="200" height="60" as="geometry"/>
                </mxCell>
                <mxCell id="127" value="Depth/Stenci test" style="rounded=0;whiteSpace=wrap;html=1;fontSize=24;fontFamily=Architects Daughter;sketch=1;curveFitting=1;jiggle=2;fontSource=https%3A%2F%2Ffonts.googleapis.com%2Fcss%3Ffamily%3DArchitects%2BDaughter;" parent="1" vertex="1">
                    <mxGeometry x="990" y="2140" width="200" height="60" as="geometry"/>
                </mxCell>
                <mxCell id="128" value="Blending" style="rounded=0;whiteSpace=wrap;html=1;fontSize=24;fontFamily=Architects Daughter;sketch=1;curveFitting=1;jiggle=2;fontSource=https%3A%2F%2Ffonts.googleapis.com%2Fcss%3Ffamily%3DArchitects%2BDaughter;" parent="1" vertex="1">
                    <mxGeometry x="990" y="2220" width="200" height="60" as="geometry"/>
                </mxCell>
                <mxCell id="155" style="edgeStyle=none;shape=connector;rounded=1;hachureGap=4;html=1;labelBackgroundColor=default;strokeColor=default;fontFamily=Architects Daughter;fontSource=https%3A%2F%2Ffonts.googleapis.com%2Fcss%3Ffamily%3DArchitects%2BDaughter;fontSize=24;fontColor=default;startArrow=none;startFill=0;endArrow=classic;endFill=1;startSize=12;endSize=12;sketch=1;curveFitting=1;jiggle=2;" parent="1" source="129" edge="1">
                    <mxGeometry relative="1" as="geometry">
                        <mxPoint x="1559.9999999999995" y="2330" as="targetPoint"/>
                    </mxGeometry>
                </mxCell>
                <mxCell id="129" value="Pipeline layout" style="rounded=0;whiteSpace=wrap;html=1;fontSize=24;fontFamily=Architects Daughter;sketch=1;curveFitting=1;jiggle=2;fontSource=https%3A%2F%2Ffonts.googleapis.com%2Fcss%3Ffamily%3DArchitects%2BDaughter;" parent="1" vertex="1">
                    <mxGeometry x="970" y="2300" width="200" height="60" as="geometry"/>
                </mxCell>
                <mxCell id="130" value="" style="shape=curlyBracket;whiteSpace=wrap;html=1;rounded=1;labelPosition=left;verticalLabelPosition=middle;align=right;verticalAlign=middle;fontFamily=Architects Daughter;fontSize=24;sketch=1;curveFitting=1;jiggle=2;fontSource=https%3A%2F%2Ffonts.googleapis.com%2Fcss%3Ffamily%3DArchitects%2BDaughter;" parent="1" vertex="1">
                    <mxGeometry x="970" y="2380" width="20" height="140" as="geometry"/>
                </mxCell>
                <mxCell id="133" style="edgeStyle=none;shape=connector;rounded=1;hachureGap=4;html=1;exitX=0;exitY=0.5;exitDx=0;exitDy=0;labelBackgroundColor=default;strokeColor=default;fontFamily=Architects Daughter;fontSource=https%3A%2F%2Ffonts.googleapis.com%2Fcss%3Ffamily%3DArchitects%2BDaughter;fontSize=24;fontColor=default;startArrow=none;startFill=0;endArrow=classic;endFill=1;startSize=12;endSize=12;dashed=1;dashPattern=8 8;sketch=1;curveFitting=1;jiggle=2;" parent="1" source="131" edge="1">
                    <mxGeometry relative="1" as="geometry">
                        <mxPoint x="340" y="1480" as="targetPoint"/>
                        <Array as="points">
                            <mxPoint x="340" y="2410"/>
                        </Array>
                    </mxGeometry>
                </mxCell>
                <mxCell id="131" value="Uniforms" style="rounded=0;whiteSpace=wrap;html=1;fontSize=24;fontFamily=Architects Daughter;sketch=1;curveFitting=1;jiggle=2;fontSource=https%3A%2F%2Ffonts.googleapis.com%2Fcss%3Ffamily%3DArchitects%2BDaughter;" parent="1" vertex="1">
                    <mxGeometry x="1000" y="2380" width="200" height="60" as="geometry"/>
                </mxCell>
                <mxCell id="134" style="edgeStyle=none;shape=connector;rounded=1;hachureGap=4;html=1;exitX=0;exitY=0.5;exitDx=0;exitDy=0;labelBackgroundColor=default;strokeColor=default;fontFamily=Architects Daughter;fontSource=https%3A%2F%2Ffonts.googleapis.com%2Fcss%3Ffamily%3DArchitects%2BDaughter;fontSize=24;fontColor=default;startArrow=none;startFill=0;endArrow=classic;endFill=1;startSize=12;endSize=12;dashed=1;dashPattern=8 8;entryX=0.5;entryY=1;entryDx=0;entryDy=0;sketch=1;curveFitting=1;jiggle=2;" parent="1" source="132" target="106" edge="1">
                    <mxGeometry relative="1" as="geometry">
                        <mxPoint x="380" y="1510" as="targetPoint"/>
                        <Array as="points">
                            <mxPoint x="340" y="2490"/>
                        </Array>
                    </mxGeometry>
                </mxCell>
                <mxCell id="138" value="Changes bekhaviour" style="edgeLabel;html=1;align=center;verticalAlign=middle;resizable=0;points=[];fontSize=24;fontFamily=Architects Daughter;fontColor=default;sketch=1;curveFitting=1;jiggle=2;fontSource=https%3A%2F%2Ffonts.googleapis.com%2Fcss%3Ffamily%3DArchitects%2BDaughter;" parent="134" vertex="1" connectable="0">
                    <mxGeometry x="0.4688" y="3" relative="1" as="geometry">
                        <mxPoint x="3" y="32" as="offset"/>
                    </mxGeometry>
                </mxCell>
                <mxCell id="132" value="Push constants" style="rounded=0;whiteSpace=wrap;html=1;fontSize=24;fontFamily=Architects Daughter;sketch=1;curveFitting=1;jiggle=2;fontSource=https%3A%2F%2Ffonts.googleapis.com%2Fcss%3Ffamily%3DArchitects%2BDaughter;" parent="1" vertex="1">
                    <mxGeometry x="1000" y="2460" width="200" height="60" as="geometry"/>
                </mxCell>
                <mxCell id="160" style="edgeStyle=none;shape=connector;rounded=1;hachureGap=4;html=1;labelBackgroundColor=default;strokeColor=default;fontFamily=Architects Daughter;fontSource=https%3A%2F%2Ffonts.googleapis.com%2Fcss%3Ffamily%3DArchitects%2BDaughter;fontSize=24;fontColor=default;startArrow=none;startFill=0;endArrow=classic;endFill=1;startSize=12;endSize=12;sketch=1;curveFitting=1;jiggle=2;" parent="1" source="140" edge="1">
                    <mxGeometry relative="1" as="geometry">
                        <mxPoint x="1960" y="2800" as="targetPoint"/>
                        <Array as="points">
                            <mxPoint x="1960" y="2570"/>
                        </Array>
                    </mxGeometry>
                </mxCell>
                <mxCell id="165" value="Framebuffer need to be bound to&lt;br style=&quot;font-size: 24px;&quot;&gt;a render pass attachment" style="edgeLabel;html=1;align=center;verticalAlign=middle;resizable=0;points=[];fontSize=24;fontFamily=Architects Daughter;fontColor=default;sketch=1;curveFitting=1;jiggle=2;fontSource=https%3A%2F%2Ffonts.googleapis.com%2Fcss%3Ffamily%3DArchitects%2BDaughter;" parent="160" vertex="1" connectable="0">
                    <mxGeometry x="0.504" y="-1" relative="1" as="geometry">
                        <mxPoint x="16" y="-41" as="offset"/>
                    </mxGeometry>
                </mxCell>
                <mxCell id="140" value="Attachment descriptions" style="rounded=0;whiteSpace=wrap;html=1;fontSize=24;fontFamily=Architects Daughter;sketch=1;curveFitting=1;jiggle=2;fontSource=https%3A%2F%2Ffonts.googleapis.com%2Fcss%3Ffamily%3DArchitects%2BDaughter;" parent="1" vertex="1">
                    <mxGeometry x="960" y="2540" width="200" height="60" as="geometry"/>
                </mxCell>
                <mxCell id="144" style="edgeStyle=none;shape=connector;rounded=1;hachureGap=4;html=1;entryX=0.5;entryY=1;entryDx=0;entryDy=0;labelBackgroundColor=default;strokeColor=default;fontFamily=Architects Daughter;fontSource=https%3A%2F%2Ffonts.googleapis.com%2Fcss%3Ffamily%3DArchitects%2BDaughter;fontSize=24;fontColor=default;startArrow=none;startFill=0;endArrow=classic;endFill=1;startSize=12;endSize=12;sketch=1;curveFitting=1;jiggle=2;" parent="1" source="141" target="140" edge="1">
                    <mxGeometry relative="1" as="geometry">
                        <Array as="points">
                            <mxPoint x="1060" y="2670"/>
                        </Array>
                    </mxGeometry>
                </mxCell>
                <mxCell id="145" value="Attachment&lt;br style=&quot;font-size: 24px;&quot;&gt;reference" style="edgeLabel;html=1;align=center;verticalAlign=middle;resizable=0;points=[];fontSize=24;fontFamily=Architects Daughter;fontColor=default;sketch=1;curveFitting=1;jiggle=2;fontSource=https%3A%2F%2Ffonts.googleapis.com%2Fcss%3Ffamily%3DArchitects%2BDaughter;" parent="144" vertex="1" connectable="0">
                    <mxGeometry x="-0.1109" y="5" relative="1" as="geometry">
                        <mxPoint x="9" y="35" as="offset"/>
                    </mxGeometry>
                </mxCell>
                <mxCell id="141" value="Subpass" style="rounded=0;whiteSpace=wrap;html=1;fontSize=24;fontFamily=Architects Daughter;sketch=1;curveFitting=1;jiggle=2;fontSource=https%3A%2F%2Ffonts.googleapis.com%2Fcss%3Ffamily%3DArchitects%2BDaughter;" parent="1" vertex="1">
                    <mxGeometry x="1280" y="2640" width="200" height="60" as="geometry"/>
                </mxCell>
                <mxCell id="147" style="edgeStyle=none;shape=connector;rounded=1;hachureGap=4;html=1;labelBackgroundColor=default;strokeColor=default;fontFamily=Architects Daughter;fontSource=https%3A%2F%2Ffonts.googleapis.com%2Fcss%3Ffamily%3DArchitects%2BDaughter;fontSize=24;fontColor=default;startArrow=none;startFill=0;endArrow=classic;endFill=1;startSize=12;endSize=12;sketch=1;curveFitting=1;jiggle=2;dashed=1;dashPattern=8 8;" parent="1" source="146" edge="1">
                    <mxGeometry relative="1" as="geometry">
                        <mxPoint x="1060" y="2600" as="targetPoint"/>
                        <Array as="points">
                            <mxPoint x="1060" y="2810"/>
                        </Array>
                    </mxGeometry>
                </mxCell>
                <mxCell id="148" value="Refer to all&lt;br style=&quot;font-size: 24px;&quot;&gt;attachments" style="edgeLabel;html=1;align=center;verticalAlign=middle;resizable=0;points=[];fontSize=24;fontFamily=Architects Daughter;fontColor=default;sketch=1;curveFitting=1;jiggle=2;fontSource=https%3A%2F%2Ffonts.googleapis.com%2Fcss%3Ffamily%3DArchitects%2BDaughter;" parent="147" vertex="1" connectable="0">
                    <mxGeometry x="-0.2551" y="5" relative="1" as="geometry">
                        <mxPoint x="50" y="35" as="offset"/>
                    </mxGeometry>
                </mxCell>
                <mxCell id="150" style="edgeStyle=none;shape=connector;rounded=1;hachureGap=4;html=1;exitX=0.5;exitY=0;exitDx=0;exitDy=0;entryX=0.5;entryY=1;entryDx=0;entryDy=0;labelBackgroundColor=default;strokeColor=default;fontFamily=Architects Daughter;fontSource=https%3A%2F%2Ffonts.googleapis.com%2Fcss%3Ffamily%3DArchitects%2BDaughter;fontSize=24;fontColor=default;startArrow=none;startFill=0;endArrow=classic;endFill=1;startSize=12;endSize=12;sketch=1;curveFitting=1;jiggle=2;" parent="1" source="146" target="141" edge="1">
                    <mxGeometry relative="1" as="geometry"/>
                </mxCell>
                <mxCell id="151" value="Made of" style="edgeLabel;html=1;align=center;verticalAlign=middle;resizable=0;points=[];fontSize=24;fontFamily=Architects Daughter;fontColor=default;sketch=1;curveFitting=1;jiggle=2;fontSource=https%3A%2F%2Ffonts.googleapis.com%2Fcss%3Ffamily%3DArchitects%2BDaughter;" parent="150" vertex="1" connectable="0">
                    <mxGeometry x="0.3658" y="-1" relative="1" as="geometry">
                        <mxPoint x="59" y="15" as="offset"/>
                    </mxGeometry>
                </mxCell>
                <mxCell id="154" style="edgeStyle=none;shape=connector;rounded=1;hachureGap=4;html=1;entryX=0;entryY=0.5;entryDx=0;entryDy=0;labelBackgroundColor=default;strokeColor=default;fontFamily=Architects Daughter;fontSource=https%3A%2F%2Ffonts.googleapis.com%2Fcss%3Ffamily%3DArchitects%2BDaughter;fontSize=24;fontColor=default;startArrow=none;startFill=0;endArrow=classic;endFill=1;startSize=12;endSize=12;exitX=1;exitY=0.5;exitDx=0;exitDy=0;sketch=1;curveFitting=1;jiggle=2;" parent="1" source="146" target="152" edge="1">
                    <mxGeometry relative="1" as="geometry">
                        <Array as="points">
                            <mxPoint x="1560" y="2810"/>
                            <mxPoint x="1560" y="2010"/>
                        </Array>
                    </mxGeometry>
                </mxCell>
                <mxCell id="159" style="edgeStyle=none;shape=connector;rounded=1;hachureGap=4;html=1;labelBackgroundColor=default;strokeColor=default;fontFamily=Architects Daughter;fontSource=https%3A%2F%2Ffonts.googleapis.com%2Fcss%3Ffamily%3DArchitects%2BDaughter;fontSize=24;fontColor=default;startArrow=none;startFill=0;endArrow=classic;endFill=1;startSize=12;endSize=12;entryX=0;entryY=0.5;entryDx=0;entryDy=0;sketch=1;curveFitting=1;jiggle=2;" parent="1" source="146" target="161" edge="1">
                    <mxGeometry relative="1" as="geometry">
                        <mxPoint x="2340" y="2800" as="targetPoint"/>
                    </mxGeometry>
                </mxCell>
                <mxCell id="164" value="Framebuffer needs to be compatible&lt;br style=&quot;font-size: 24px;&quot;&gt;with a specific render pass" style="edgeLabel;html=1;align=center;verticalAlign=middle;resizable=0;points=[];fontSize=24;fontFamily=Architects Daughter;fontColor=default;sketch=1;curveFitting=1;jiggle=2;fontSource=https%3A%2F%2Ffonts.googleapis.com%2Fcss%3Ffamily%3DArchitects%2BDaughter;" parent="159" vertex="1" connectable="0">
                    <mxGeometry x="0.2623" y="4" relative="1" as="geometry">
                        <mxPoint x="-91" y="44" as="offset"/>
                    </mxGeometry>
                </mxCell>
                <mxCell id="146" value="Render pass" style="rounded=0;whiteSpace=wrap;html=1;fontSize=24;fontFamily=Architects Daughter;sketch=1;curveFitting=1;jiggle=2;fontSource=https%3A%2F%2Ffonts.googleapis.com%2Fcss%3Ffamily%3DArchitects%2BDaughter;" parent="1" vertex="1">
                    <mxGeometry x="1280" y="2780" width="200" height="60" as="geometry"/>
                </mxCell>
                <mxCell id="152" value="Pipeline" style="rounded=0;whiteSpace=wrap;html=1;fontSize=24;fontFamily=Architects Daughter;sketch=1;curveFitting=1;jiggle=2;fontSource=https%3A%2F%2Ffonts.googleapis.com%2Fcss%3Ffamily%3DArchitects%2BDaughter;" parent="1" vertex="1">
                    <mxGeometry x="1680" y="1980" width="200" height="60" as="geometry"/>
                </mxCell>
                <mxCell id="161" value="Framebuffer" style="rounded=0;whiteSpace=wrap;html=1;fontSize=24;fontFamily=Architects Daughter;sketch=1;curveFitting=1;jiggle=2;fontSource=https%3A%2F%2Ffonts.googleapis.com%2Fcss%3Ffamily%3DArchitects%2BDaughter;" parent="1" vertex="1">
                    <mxGeometry x="2370" y="2780" width="200" height="60" as="geometry"/>
                </mxCell>
                <mxCell id="166" value="Command&lt;br&gt;buffer" style="rounded=0;whiteSpace=wrap;html=1;fontSize=24;fontFamily=Architects Daughter;sketch=1;curveFitting=1;jiggle=2;fontSource=https%3A%2F%2Ffonts.googleapis.com%2Fcss%3Ffamily%3DArchitects%2BDaughter;" parent="1" vertex="1">
                    <mxGeometry x="2370" y="2960" width="200" height="60" as="geometry"/>
                </mxCell>
                <mxCell id="168" style="edgeStyle=none;sketch=1;hachureGap=4;jiggle=2;curveFitting=1;html=1;entryX=0;entryY=0.5;entryDx=0;entryDy=0;fontFamily=Architects Daughter;fontSource=https%3A%2F%2Ffonts.googleapis.com%2Fcss%3Ffamily%3DArchitects%2BDaughter;fontSize=24;endSize=12;startSize=12;" parent="1" source="167" target="166" edge="1">
                    <mxGeometry relative="1" as="geometry"/>
                </mxCell>
                <mxCell id="169" value="&lt;font style=&quot;font-size: 24px;&quot;&gt;Allocate&lt;/font&gt;" style="edgeLabel;html=1;align=center;verticalAlign=middle;resizable=0;points=[];fontSize=24;fontFamily=Architects Daughter;fontColor=default;fontSource=https%3A%2F%2Ffonts.googleapis.com%2Fcss%3Ffamily%3DArchitects%2BDaughter;" parent="168" vertex="1" connectable="0">
                    <mxGeometry x="0.1838" y="-3" relative="1" as="geometry">
                        <mxPoint x="-14" y="-3" as="offset"/>
                    </mxGeometry>
                </mxCell>
                <mxCell id="167" value="Command pool" style="rounded=0;whiteSpace=wrap;html=1;fontSize=24;fontFamily=Architects Daughter;sketch=1;curveFitting=1;jiggle=2;fontSource=https%3A%2F%2Ffonts.googleapis.com%2Fcss%3Ffamily%3DArchitects%2BDaughter;" parent="1" vertex="1">
                    <mxGeometry x="2010" y="2960" width="200" height="60" as="geometry"/>
                </mxCell>
                <mxCell id="172" style="edgeStyle=none;shape=connector;rounded=1;sketch=1;hachureGap=4;jiggle=2;curveFitting=1;html=1;entryX=0.5;entryY=1;entryDx=0;entryDy=0;labelBackgroundColor=default;strokeColor=default;fontFamily=Architects Daughter;fontSource=https%3A%2F%2Ffonts.googleapis.com%2Fcss%3Ffamily%3DArchitects%2BDaughter;fontSize=24;fontColor=default;endArrow=classic;startSize=12;endSize=12;" parent="1" source="170" target="152" edge="1">
                    <mxGeometry relative="1" as="geometry">
                        <Array as="points">
                            <mxPoint x="1780" y="3230"/>
                        </Array>
                    </mxGeometry>
                </mxCell>
                <mxCell id="181" style="edgeStyle=none;shape=connector;rounded=1;sketch=1;hachureGap=4;jiggle=2;curveFitting=1;html=1;exitX=0.5;exitY=1;exitDx=0;exitDy=0;entryX=0.5;entryY=0;entryDx=0;entryDy=0;labelBackgroundColor=default;strokeColor=default;fontFamily=Architects Daughter;fontSource=https%3A%2F%2Ffonts.googleapis.com%2Fcss%3Ffamily%3DArchitects%2BDaughter;fontSize=24;fontColor=default;endArrow=classic;startSize=12;endSize=12;" parent="1" source="170" target="178" edge="1">
                    <mxGeometry relative="1" as="geometry"/>
                </mxCell>
                <mxCell id="170" value="Bind with pipeline" style="rounded=0;whiteSpace=wrap;html=1;fontSize=24;fontFamily=Architects Daughter;sketch=1;curveFitting=1;jiggle=2;fontSource=https%3A%2F%2Ffonts.googleapis.com%2Fcss%3Ffamily%3DArchitects%2BDaughter;" parent="1" vertex="1">
                    <mxGeometry x="2400" y="3200" width="200" height="60" as="geometry"/>
                </mxCell>
                <mxCell id="171" value="" style="shape=curlyBracket;whiteSpace=wrap;html=1;rounded=1;labelPosition=left;verticalLabelPosition=middle;align=right;verticalAlign=middle;fontFamily=Architects Daughter;fontSize=24;sketch=1;curveFitting=1;jiggle=2;fontSource=https%3A%2F%2Ffonts.googleapis.com%2Fcss%3Ffamily%3DArchitects%2BDaughter;" parent="1" vertex="1">
                    <mxGeometry x="2370" y="3040" width="20" height="300" as="geometry"/>
                </mxCell>
                <mxCell id="174" style="edgeStyle=none;shape=connector;rounded=1;sketch=1;hachureGap=4;jiggle=2;curveFitting=1;html=1;entryX=0.5;entryY=1;entryDx=0;entryDy=0;labelBackgroundColor=default;strokeColor=default;fontFamily=Architects Daughter;fontSource=https%3A%2F%2Ffonts.googleapis.com%2Fcss%3Ffamily%3DArchitects%2BDaughter;fontSize=24;fontColor=default;endArrow=classic;startSize=12;endSize=12;" parent="1" source="173" target="146" edge="1">
                    <mxGeometry relative="1" as="geometry">
                        <Array as="points">
                            <mxPoint x="1380" y="3070"/>
                        </Array>
                    </mxGeometry>
                </mxCell>
                <mxCell id="179" style="edgeStyle=none;shape=connector;rounded=1;sketch=1;hachureGap=4;jiggle=2;curveFitting=1;html=1;exitX=0.5;exitY=1;exitDx=0;exitDy=0;entryX=0.5;entryY=0;entryDx=0;entryDy=0;labelBackgroundColor=default;strokeColor=default;fontFamily=Architects Daughter;fontSource=https%3A%2F%2Ffonts.googleapis.com%2Fcss%3Ffamily%3DArchitects%2BDaughter;fontSize=24;fontColor=default;endArrow=classic;startSize=12;endSize=12;" parent="1" source="173" target="176" edge="1">
                    <mxGeometry relative="1" as="geometry"/>
                </mxCell>
                <mxCell id="173" value="Begin with&lt;br&gt;render pass" style="rounded=0;whiteSpace=wrap;html=1;fontSize=24;fontFamily=Architects Daughter;sketch=1;curveFitting=1;jiggle=2;fontSource=https%3A%2F%2Ffonts.googleapis.com%2Fcss%3Ffamily%3DArchitects%2BDaughter;" parent="1" vertex="1">
                    <mxGeometry x="2400" y="3040" width="200" height="60" as="geometry"/>
                </mxCell>
                <mxCell id="177" style="edgeStyle=none;shape=connector;rounded=1;sketch=1;hachureGap=4;jiggle=2;curveFitting=1;html=1;entryX=1;entryY=0.5;entryDx=0;entryDy=0;labelBackgroundColor=default;strokeColor=default;fontFamily=Architects Daughter;fontSource=https%3A%2F%2Ffonts.googleapis.com%2Fcss%3Ffamily%3DArchitects%2BDaughter;fontSize=24;fontColor=default;endArrow=classic;startSize=12;endSize=12;exitX=1;exitY=0.5;exitDx=0;exitDy=0;" parent="1" source="176" target="161" edge="1">
                    <mxGeometry relative="1" as="geometry">
                        <Array as="points">
                            <mxPoint x="2660" y="3150"/>
                            <mxPoint x="2660" y="2810"/>
                        </Array>
                    </mxGeometry>
                </mxCell>
                <mxCell id="180" style="edgeStyle=none;shape=connector;rounded=1;sketch=1;hachureGap=4;jiggle=2;curveFitting=1;html=1;exitX=0.5;exitY=1;exitDx=0;exitDy=0;entryX=0.5;entryY=0;entryDx=0;entryDy=0;labelBackgroundColor=default;strokeColor=default;fontFamily=Architects Daughter;fontSource=https%3A%2F%2Ffonts.googleapis.com%2Fcss%3Ffamily%3DArchitects%2BDaughter;fontSize=24;fontColor=default;endArrow=classic;startSize=12;endSize=12;" parent="1" source="176" target="170" edge="1">
                    <mxGeometry relative="1" as="geometry"/>
                </mxCell>
                <mxCell id="176" value="Bind with framebuffer" style="rounded=0;whiteSpace=wrap;html=1;fontSize=24;fontFamily=Architects Daughter;sketch=1;curveFitting=1;jiggle=2;fontSource=https%3A%2F%2Ffonts.googleapis.com%2Fcss%3Ffamily%3DArchitects%2BDaughter;" parent="1" vertex="1">
                    <mxGeometry x="2400" y="3120" width="200" height="60" as="geometry"/>
                </mxCell>
                <mxCell id="178" value="Record draw commands" style="rounded=0;whiteSpace=wrap;html=1;fontSize=24;fontFamily=Architects Daughter;sketch=1;curveFitting=1;jiggle=2;fontSource=https%3A%2F%2Ffonts.googleapis.com%2Fcss%3Ffamily%3DArchitects%2BDaughter;" parent="1" vertex="1">
                    <mxGeometry x="2400" y="3280" width="200" height="60" as="geometry"/>
                </mxCell>
            </root>
        </mxGraphModel>
    </diagram>
</mxfile>